<svg width="95" height="52" viewBox="0 0 95 52" fill="none" xmlns="http://www.w3.org/2000/svg">
<path d="M2.58199 26.4L11.982 25.1L15.782 15.4C16.782 12.8 19.282 11.2 22.382 11.2H33.282C34.182 11.2 34.982 11.8 35.082 12.7L38.682 32.6C38.882 33.5 39.582 34.1 40.482 34.1H88.282C89.182 34.1 89.982 34.7 90.082 35.6L91.082 41.3C91.282 42.4 90.382 43.5 89.282 43.5H85.382C85.782 47.8 82.782 51.2 78.482 51.2C74.182 51.2 69.882 47.8 68.782 43.5H25.282C25.682 47.8 22.682 51.2 18.382 51.2C13.982 51.2 9.78199 47.8 8.68199 43.5H3.98199C3.08199 43.5 2.28199 42.9 2.18199 42L0.0819931 30.1C-0.318007 28.2 0.781993 26.6 2.58199 26.4ZM72.582 42.8C72.982 45.2 75.282 47.2 77.782 47.2C80.182 47.2 81.882 45.2 81.382 42.8C80.982 40.4 78.682 38.4 76.182 38.4C73.782 38.4 72.082 40.4 72.582 42.8ZM31.282 24.8L29.782 16.4H23.382C22.282 16.4 21.282 17 20.882 18L18.182 24.8H31.282ZM12.482 42.8C12.882 45.2 15.182 47.2 17.682 47.2C20.182 47.2 21.782 45.2 21.282 42.8C20.882 40.4 18.582 38.4 16.082 38.4C13.582 38.4 12.082 40.4 12.482 42.8Z" fill="#2150DB"/>
<path d="M40.882 29.9L35.982 2.2C35.782 1.1 36.682 0 37.782 0H85.482C87.182 0 88.582 1.4 88.582 3.1C88.582 4.8 87.182 6.2 85.482 6.2H84.982H80.282C78.582 6.2 77.182 7.6 77.182 9.3C77.182 11 78.582 12.4 80.282 12.4H88.682C90.382 12.4 91.782 13.8 91.782 15.5C91.782 17.2 90.382 18.6 88.682 18.6H83.482C81.782 18.6 80.382 20 80.382 21.7C80.382 23.4 81.782 24.8 83.482 24.9H91.882C93.582 24.9 94.982 26.3 94.982 28C94.982 29.7 93.582 31.1 91.882 31.1H42.782C41.782 31.5 40.982 30.8 40.882 29.9Z" fill="#00DBAD"/>
</svg>
