<svg width="290" height="53" viewBox="0 0 290 53" fill="none" xmlns="http://www.w3.org/2000/svg">
<path d="M102.61 3.312H131.378V11.432H120.996V46H112.586V11.432H102.61V3.312ZM142.013 20.654L142.767 27.614L142.593 26.57C143.328 25.062 144.333 23.786 145.609 22.742C146.885 21.6593 148.142 20.828 149.379 20.248C150.655 19.668 151.622 19.378 152.279 19.378L151.873 27.498C149.979 27.266 148.355 27.5753 147.001 28.426C145.648 29.2767 144.604 30.398 143.869 31.79C143.135 33.182 142.767 34.6127 142.767 36.082V46H134.705V20.654H142.013ZM166.672 47.218C164.391 47.218 162.477 46.522 160.93 45.13C159.384 43.6993 158.572 41.8627 158.494 39.62V20.654H166.614V36.604C166.692 37.7253 166.982 38.634 167.484 39.33C167.987 39.9873 168.838 40.316 170.036 40.316C171.235 40.316 172.26 39.91 173.11 39.098C174 38.286 174.676 37.184 175.14 35.792C175.643 34.3613 175.894 32.7567 175.894 30.978V20.654H184.014V46H176.648L176.01 41.36L176.126 41.882C175.546 42.926 174.812 43.854 173.922 44.666C173.033 45.478 171.97 46.0967 170.732 46.522C169.534 46.986 168.18 47.218 166.672 47.218ZM213.883 43.738C212.762 44.6273 211.351 45.3427 209.649 45.884C207.987 46.4253 206.343 46.696 204.719 46.696C201.819 46.696 199.287 46.174 197.121 45.13C194.995 44.0473 193.332 42.52 192.133 40.548C190.973 38.5373 190.393 36.1207 190.393 33.298C190.393 30.4753 191.031 28.078 192.307 26.106C193.583 24.0953 195.246 22.568 197.295 21.524C199.383 20.48 201.568 19.958 203.849 19.958C206.131 19.958 208.103 20.2673 209.765 20.886C211.467 21.5047 212.917 22.3167 214.115 23.322L210.171 28.542C209.63 28.1167 208.876 27.6913 207.909 27.266C206.981 26.802 205.879 26.57 204.603 26.57C203.482 26.57 202.457 26.86 201.529 27.44C200.601 28.02 199.867 28.8127 199.325 29.818C198.784 30.8233 198.513 31.9833 198.513 33.298C198.513 34.5353 198.803 35.676 199.383 36.72C199.963 37.764 200.756 38.5953 201.761 39.214C202.805 39.794 204.023 40.084 205.415 40.084C206.305 40.084 207.117 39.968 207.851 39.736C208.625 39.4653 209.282 39.098 209.823 38.634L213.883 43.738ZM220.119 46V0.237998H228.239V46H220.119ZM234.677 28.774L246.161 46H236.707L229.341 33.414L234.677 28.774ZM225.803 38.982L224.991 31.268L240.303 20.016L245.233 24.366L225.803 38.982ZM253.115 3.312H261.525V46H253.115V3.312ZM273.587 9.518H281.707V20.538H287.855V26.86H281.707V46H273.587V26.86H269.643V20.538H273.587V9.518Z" fill="black"/>
<path d="M2.58199 27.4L11.982 26.1L15.782 16.4C16.782 13.8 19.282 12.2 22.382 12.2H33.282C34.182 12.2 34.982 12.8 35.082 13.7L38.682 33.6C38.882 34.5 39.582 35.1 40.482 35.1H88.282C89.182 35.1 89.982 35.7 90.082 36.6L91.082 42.3C91.282 43.4 90.382 44.5 89.282 44.5H85.382C85.782 48.8 82.782 52.2 78.482 52.2C74.182 52.2 69.882 48.8 68.782 44.5H25.282C25.682 48.8 22.682 52.2 18.382 52.2C13.982 52.2 9.78199 48.8 8.68199 44.5H3.98199C3.08199 44.5 2.28199 43.9 2.18199 43L0.0819931 31.1C-0.318007 29.2 0.781993 27.6 2.58199 27.4ZM72.582 43.8C72.982 46.2 75.282 48.2 77.782 48.2C80.182 48.2 81.882 46.2 81.382 43.8C80.982 41.4 78.682 39.4 76.182 39.4C73.782 39.4 72.082 41.4 72.582 43.8ZM31.282 25.8L29.782 17.4H23.382C22.282 17.4 21.282 18 20.882 19L18.182 25.8H31.282ZM12.482 43.8C12.882 46.2 15.182 48.2 17.682 48.2C20.182 48.2 21.782 46.2 21.282 43.8C20.882 41.4 18.582 39.4 16.082 39.4C13.582 39.4 12.082 41.4 12.482 43.8Z" fill="#2150DB"/>
<path d="M40.882 30.9L35.982 3.2C35.782 2.1 36.682 1 37.782 1H85.482C87.182 1 88.582 2.4 88.582 4.1C88.582 5.8 87.182 7.2 85.482 7.2H84.982H80.282C78.582 7.2 77.182 8.6 77.182 10.3C77.182 12 78.582 13.4 80.282 13.4H88.682C90.382 13.4 91.782 14.8 91.782 16.5C91.782 18.2 90.382 19.6 88.682 19.6H83.482C81.782 19.6 80.382 21 80.382 22.7C80.382 24.4 81.782 25.8 83.482 25.9H91.882C93.582 25.9 94.982 27.3 94.982 29C94.982 30.7 93.582 32.1 91.882 32.1H42.782C41.782 32.5 40.982 31.8 40.882 30.9Z" fill="#00DBAD"/>
</svg>
